<svg width="9" height="5" viewBox="0 0 9 5" fill="none" xmlns="http://www.w3.org/2000/svg">
<path d="M4.50391 4.42578C4.31641 4.42578 4.14453 4.34896 3.98828 4.19531L1.09766 1.23828C1.04036 1.17839 0.996094 1.11328 0.964844 1.04297C0.936198 0.970052 0.921875 0.891927 0.921875 0.808594C0.921875 0.691406 0.949219 0.585938 1.00391 0.492188C1.0612 0.395833 1.13672 0.320312 1.23047 0.265625C1.32422 0.208333 1.42839 0.179688 1.54297 0.179688C1.71745 0.179688 1.87109 0.246094 2.00391 0.378906L4.66406 3.11719H4.34766L7 0.378906C7.13281 0.246094 7.28516 0.179688 7.45703 0.179688C7.57161 0.179688 7.67578 0.208333 7.76953 0.265625C7.86328 0.320312 7.9375 0.395833 7.99219 0.492188C8.04948 0.585938 8.07812 0.691406 8.07812 0.808594C8.07812 0.977865 8.01953 1.12109 7.90234 1.23828L5.01562 4.19531C4.9375 4.27344 4.85677 4.33073 4.77344 4.36719C4.6901 4.40365 4.60026 4.42318 4.50391 4.42578Z" fill="black" fill-opacity="0.4"/>
</svg>
