<svg xmlns="http://www.w3.org/2000/svg" fill="none" viewBox="0.63 0.4 6.37 10.73"><path d="M7.00195 5.76953C7.00195 5.91406 6.97266 6.04883 6.91406 6.17383C6.85938 6.29492 6.77148 6.41406 6.65039 6.53125L2.22656 10.8672C2.04688 11.0469 1.82812 11.1367 1.57031 11.1367C1.40234 11.1367 1.24609 11.0938 1.10156 11.0078C0.957031 10.9258 0.841797 10.8145 0.755859 10.6738C0.673828 10.5332 0.632812 10.377 0.632812 10.2051C0.632812 9.94727 0.732422 9.7168 0.931641 9.51367L4.79297 5.76367L0.931641 2.01953C0.732422 1.82422 0.632812 1.5957 0.632812 1.33398C0.632812 1.16211 0.673828 1.00586 0.755859 0.865234C0.841797 0.724609 0.957031 0.613281 1.10156 0.53125C1.24609 0.445312 1.40234 0.402344 1.57031 0.402344C1.82812 0.402344 2.04688 0.490234 2.22656 0.666016L6.65039 5.00195C6.77148 5.11914 6.85938 5.24023 6.91406 5.36523C6.96875 5.48633 6.99805 5.62109 7.00195 5.76953Z" fill="black"></path></svg>