<svg xmlns="http://www.w3.org/2000/svg" fill="none" viewBox="0.62 0.94 8.74 13.57"><path d="M3.61719 14.2383C3.51172 14.3789 3.39453 14.4629 3.26562 14.4902C3.14062 14.5215 3.02734 14.5098 2.92578 14.4551C2.82422 14.4043 2.75195 14.3184 2.70898 14.1973C2.66602 14.0762 2.67578 13.9297 2.73828 13.7578L4.4668 9.14062H1.0918C0.958984 9.14062 0.847656 9.09961 0.757812 9.01758C0.667969 8.93164 0.623047 8.82617 0.623047 8.70117C0.623047 8.56445 0.679688 8.42773 0.792969 8.29102L6.37695 1.20703C6.48242 1.07031 6.59766 0.986328 6.72266 0.955078C6.85156 0.923828 6.9668 0.935547 7.06836 0.990234C7.16992 1.04102 7.24023 1.12891 7.2793 1.25391C7.32227 1.375 7.3125 1.51953 7.25 1.6875L5.52734 6.30469H8.89648C9.0332 6.30469 9.14453 6.34766 9.23047 6.43359C9.32031 6.51562 9.36523 6.62109 9.36523 6.75C9.36523 6.88281 9.31055 7.01758 9.20117 7.1543L3.61719 14.2383ZM3.95703 12.5801L3.72266 12.4805L7.63672 7.30664H3.97461L6.03125 2.87109L6.26562 2.9707L2.35156 8.14453H6.01953L3.95703 12.5801Z" fill="black"></path></svg>