<svg width="14" height="12" viewBox="0 0 14 12" fill="none" xmlns="http://www.w3.org/2000/svg">
<path d="M2.41504 9.65723V8.49561C2.41504 7.7085 2.17383 7.33398 1.48828 7.21338C1.06299 7.13721 0.885254 6.87061 0.885254 6.39453C0.885254 5.91211 1.07568 5.6582 1.48828 5.58203C2.16748 5.45508 2.41504 5.09326 2.41504 4.2998V3.13818C2.41504 1.55127 3.18311 0.840332 4.78271 0.840332C4.94141 0.840332 5.08105 0.859375 5.18896 0.897461C5.48096 0.999023 5.62061 1.2085 5.62061 1.45605C5.62061 1.7417 5.49365 1.91309 5.22705 1.98926C5.16357 2.00195 5.0874 2.01465 5.01123 2.02734C4.23682 2.10352 3.91943 2.4209 3.91943 3.32861V4.76318C3.91943 5.67725 3.37988 6.19775 2.35791 6.30566V6.48975C3.37988 6.59766 3.91943 7.11816 3.91943 8.03857V9.47314C3.91943 10.3809 4.23682 10.6982 5.01123 10.7744C5.0874 10.7808 5.15723 10.7935 5.2207 10.8125C5.49365 10.8887 5.62061 11.0537 5.62061 11.3394C5.62061 11.5996 5.47461 11.8154 5.15723 11.9106C5.04932 11.9424 4.92236 11.9614 4.78271 11.9614C3.18311 11.9614 2.41504 11.2505 2.41504 9.65723ZM11.5786 9.65723C11.5786 11.2505 10.8169 11.9614 9.21729 11.9614C9.07129 11.9614 8.94434 11.9424 8.84277 11.9106C8.52539 11.8154 8.37939 11.5996 8.37939 11.3394C8.37939 11.0537 8.50635 10.8887 8.77295 10.8125C8.83643 10.7935 8.90625 10.7808 8.98242 10.7744C9.76318 10.6982 10.0742 10.3809 10.0742 9.47314V8.03857C10.0742 7.11816 10.6138 6.59766 11.6421 6.48975V6.30566C10.6138 6.19775 10.0742 5.67725 10.0742 4.76318V3.32861C10.0742 2.4209 9.76318 2.10352 8.98242 2.02734C8.90625 2.01465 8.83643 2.00195 8.77295 1.98926C8.50635 1.91309 8.37939 1.7417 8.37939 1.45605C8.37939 1.2085 8.5127 0.999023 8.80469 0.897461C8.91895 0.859375 9.05859 0.840332 9.21729 0.840332C10.8169 0.840332 11.5786 1.55127 11.5786 3.13818V4.2998C11.5786 5.09326 11.8325 5.45508 12.5054 5.58203C12.9243 5.6582 13.1084 5.91211 13.1084 6.39453C13.1084 6.87061 12.937 7.13721 12.5054 7.21338C11.8262 7.33398 11.5786 7.7085 11.5786 8.49561V9.65723Z" fill="black" fill-opacity="0.4"/>
</svg>
