<svg width="15" height="13" viewBox="0 0 15 13" fill="none" xmlns="http://www.w3.org/2000/svg">
<path d="M7.48828 3.19531C7.3125 3.19531 7.16016 3.13281 7.03125 3.00781C6.90625 2.87891 6.84375 2.72461 6.84375 2.54492V0.757812C6.84375 0.578125 6.90625 0.425781 7.03125 0.300781C7.16016 0.171875 7.3125 0.107422 7.48828 0.107422C7.66406 0.107422 7.81641 0.171875 7.94531 0.300781C8.07422 0.425781 8.13867 0.578125 8.13867 0.757812V2.54492C8.13867 2.72461 8.07422 2.87891 7.94531 3.00781C7.81641 3.13281 7.66406 3.19531 7.48828 3.19531ZM10.0195 4.23828C9.89453 4.11719 9.83203 3.9668 9.83203 3.78711C9.83203 3.60352 9.89453 3.44922 10.0195 3.32422L11.2852 2.06445C11.4102 1.93945 11.5625 1.87695 11.7422 1.87695C11.9219 1.87695 12.0742 1.93945 12.1992 2.06445C12.3242 2.18945 12.3867 2.3418 12.3867 2.52148C12.3867 2.70117 12.3242 2.85156 12.1992 2.97266L10.9336 4.23828C10.8086 4.36328 10.6543 4.42578 10.4707 4.42578C10.291 4.42578 10.1406 4.36328 10.0195 4.23828ZM11.0684 6.76953C11.0684 6.59375 11.1309 6.44336 11.2559 6.31836C11.3848 6.18945 11.5371 6.125 11.7129 6.125H13.5C13.6797 6.125 13.832 6.18945 13.957 6.31836C14.0859 6.44336 14.1504 6.59375 14.1504 6.76953C14.1504 6.94531 14.0859 7.09766 13.957 7.22656C13.832 7.35156 13.6797 7.41406 13.5 7.41406H11.7129C11.5371 7.41406 11.3848 7.35156 11.2559 7.22656C11.1309 7.09766 11.0684 6.94531 11.0684 6.76953ZM4.96289 9.29492C5.08789 9.41992 5.15039 9.57227 5.15039 9.75195C5.15039 9.93164 5.08789 10.084 4.96289 10.209L3.69141 11.4746C3.57031 11.5996 3.41992 11.6621 3.24023 11.6621C3.06055 11.6621 2.9082 11.5996 2.7832 11.4746C2.6582 11.3496 2.5957 11.1973 2.5957 11.0176C2.5957 10.8379 2.6582 10.6875 2.7832 10.5664L4.04883 9.29492C4.17383 9.16992 4.32617 9.10742 4.50586 9.10742C4.68945 9.10742 4.8418 9.16992 4.96289 9.29492ZM3.91406 6.76953C3.91406 6.94531 3.84961 7.09766 3.7207 7.22656C3.5957 7.35156 3.44531 7.41406 3.26953 7.41406H1.47656C1.30078 7.41406 1.14844 7.35156 1.01953 7.22656C0.894531 7.09766 0.832031 6.94531 0.832031 6.76953C0.832031 6.59375 0.894531 6.44336 1.01953 6.31836C1.14844 6.18945 1.30078 6.125 1.47656 6.125H3.26953C3.44531 6.125 3.5957 6.18945 3.7207 6.31836C3.84961 6.44336 3.91406 6.59375 3.91406 6.76953ZM4.96289 4.23828C4.8418 4.36328 4.68945 4.42578 4.50586 4.42578C4.32617 4.42578 4.17383 4.36328 4.04883 4.23828L2.7832 2.97266C2.6582 2.85156 2.5957 2.70117 2.5957 2.52148C2.5957 2.3418 2.6582 2.18945 2.7832 2.06445C2.9082 1.93945 3.06055 1.87695 3.24023 1.87695C3.41992 1.87695 3.57031 1.93945 3.69141 2.06445L4.96289 3.32422C5.08789 3.44922 5.15039 3.60352 5.15039 3.78711C5.15039 3.9668 5.08789 4.11719 4.96289 4.23828ZM7.14844 11.0117L7.20703 6.44141C7.21094 6.31641 7.26367 6.23242 7.36523 6.18945C7.4707 6.14648 7.57031 6.17188 7.66406 6.26562L10.8223 9.48242C10.916 9.58398 10.9375 9.68945 10.8867 9.79883C10.8398 9.9043 10.75 9.95703 10.6172 9.95703L9.45703 9.97461L10.418 12.207C10.4492 12.2695 10.457 12.3379 10.4414 12.4121C10.4297 12.4902 10.3809 12.5469 10.2949 12.582L9.70898 12.8047C9.62305 12.8359 9.54688 12.832 9.48047 12.793C9.41797 12.7578 9.37109 12.7031 9.33984 12.6289L8.43164 10.3789L7.64062 11.1992C7.55078 11.293 7.44531 11.3203 7.32422 11.2812C7.20312 11.2422 7.14453 11.1523 7.14844 11.0117Z" fill="black" fill-opacity="0.4"/>
</svg>
