<svg width="10" height="11" viewBox="0 0 10 11" fill="none" xmlns="http://www.w3.org/2000/svg">
<path d="M0.441406 10.334C0.34375 10.2363 0.279297 10.123 0.248047 9.99414C0.216797 9.86523 0.216797 9.73633 0.248047 9.60742C0.279297 9.47852 0.341797 9.36719 0.435547 9.27344L3.92773 5.77539L0.435547 2.2832C0.341797 2.19336 0.279297 2.08398 0.248047 1.95508C0.220703 1.82227 0.220703 1.69141 0.248047 1.5625C0.279297 1.43359 0.34375 1.32031 0.441406 1.22266C0.535156 1.125 0.646484 1.06055 0.775391 1.0293C0.908203 0.998047 1.03906 0.998047 1.16797 1.0293C1.30078 1.06055 1.41406 1.12305 1.50781 1.2168L5 4.70898L8.49219 1.2168C8.58594 1.12305 8.69727 1.06055 8.82617 1.0293C8.95508 0.998047 9.08398 0.998047 9.21289 1.0293C9.3418 1.06055 9.45508 1.12695 9.55273 1.22852C9.65039 1.32227 9.71484 1.43359 9.74609 1.5625C9.78125 1.69141 9.78125 1.82031 9.74609 1.94922C9.71484 2.07812 9.65234 2.18945 9.55859 2.2832L6.07227 5.77539L9.55859 9.27344C9.65234 9.36719 9.71484 9.47852 9.74609 9.60742C9.77734 9.73633 9.77734 9.86523 9.74609 9.99414C9.71484 10.123 9.65039 10.2363 9.55273 10.334C9.45508 10.4316 9.3418 10.4961 9.21289 10.5273C9.08398 10.5586 8.95508 10.5586 8.82617 10.5273C8.69727 10.4961 8.58594 10.4336 8.49219 10.3398L5 6.84766L1.50781 10.3398C1.41406 10.4336 1.30273 10.4961 1.17383 10.5273C1.04492 10.5586 0.914062 10.5586 0.78125 10.5273C0.652344 10.4961 0.539062 10.4316 0.441406 10.334Z" fill="black"/>
</svg>
