<svg xmlns="http://www.w3.org/2000/svg" fill="none" viewBox="0.41 0.17 13.17 13.15"><path d="M7.64453 10.8887V12.6816C7.64453 12.8574 7.58008 13.0078 7.45117 13.1328C7.32227 13.2617 7.16992 13.3262 6.99414 13.3262C6.81836 13.3262 6.66602 13.2617 6.53711 13.1328C6.41211 13.0078 6.34961 12.8574 6.34961 12.6816V10.8887C6.34961 10.7129 6.41211 10.5605 6.53711 10.4316C6.66602 10.3027 6.81836 10.2383 6.99414 10.2383C7.16992 10.2383 7.32227 10.3027 7.45117 10.4316C7.58008 10.5605 7.64453 10.7129 7.64453 10.8887ZM2.35352 10.4609L3.5957 9.22461C3.7207 9.10352 3.87305 9.04492 4.05273 9.04883C4.23633 9.04883 4.38867 9.11133 4.50977 9.23633C4.63086 9.35742 4.69141 9.50781 4.69141 9.6875C4.69141 9.86719 4.62891 10.0176 4.50391 10.1387L3.26172 11.3809C3.13672 11.5059 2.98242 11.5664 2.79883 11.5625C2.61914 11.5586 2.4668 11.4941 2.3418 11.3691C2.22461 11.248 2.16602 11.0977 2.16602 10.918C2.16602 10.7383 2.22852 10.5859 2.35352 10.4609ZM1.05859 6.10156H2.85742C3.0293 6.10156 3.17969 6.16602 3.30859 6.29492C3.4375 6.42383 3.50195 6.57422 3.50195 6.74609C3.50195 6.92188 3.4375 7.07422 3.30859 7.20312C3.17969 7.32812 3.0293 7.39062 2.85742 7.39062H1.05859C0.886719 7.39062 0.736328 7.32812 0.607422 7.20312C0.478516 7.07422 0.414062 6.92188 0.414062 6.74609C0.414062 6.57422 0.478516 6.42383 0.607422 6.29492C0.736328 6.16602 0.886719 6.10156 1.05859 6.10156ZM3.5957 4.26758L2.35352 3.01953C2.23242 2.89844 2.17188 2.74805 2.17188 2.56836C2.17578 2.38477 2.23828 2.23047 2.35938 2.10547C2.48438 1.98437 2.63672 1.92578 2.81641 1.92969C2.99609 1.93359 3.14844 1.99609 3.27344 2.11719L4.50977 3.36523C4.63086 3.48633 4.69141 3.63867 4.69141 3.82227C4.69141 4.00195 4.62891 4.15234 4.50391 4.27344C4.38281 4.39844 4.23047 4.46094 4.04688 4.46094C3.86719 4.45703 3.7168 4.39258 3.5957 4.26758ZM7.64453 0.816406V2.60938C7.64453 2.78516 7.58008 2.9375 7.45117 3.06641C7.32227 3.19141 7.16992 3.25391 6.99414 3.25391C6.81836 3.25391 6.66602 3.19141 6.53711 3.06641C6.41211 2.9375 6.34961 2.78516 6.34961 2.60938V0.816406C6.34961 0.640625 6.41211 0.490234 6.53711 0.365234C6.66602 0.236328 6.81836 0.171875 6.99414 0.171875C7.16992 0.171875 7.32227 0.236328 7.45117 0.365234C7.58008 0.490234 7.64453 0.640625 7.64453 0.816406ZM9.47852 3.36523L10.7266 2.11133C10.8477 1.99023 10.998 1.92969 11.1777 1.92969C11.3574 1.92578 11.5078 1.98437 11.6289 2.10547C11.7539 2.23047 11.8164 2.38477 11.8164 2.56836C11.8164 2.75195 11.7559 2.9043 11.6348 3.02539L10.3984 4.26758C10.2734 4.39258 10.1191 4.45703 9.93555 4.46094C9.75586 4.46094 9.60547 4.39844 9.48438 4.27344C9.35938 4.15234 9.29688 4.00195 9.29688 3.82227C9.29688 3.63867 9.35742 3.48633 9.47852 3.36523ZM12.9297 7.39062H11.1367C10.9648 7.39062 10.8145 7.32812 10.6855 7.20312C10.5605 7.07422 10.498 6.92188 10.498 6.74609C10.498 6.57422 10.5605 6.42383 10.6855 6.29492C10.8145 6.16602 10.9648 6.10156 11.1367 6.10156H12.9297C13.1055 6.10156 13.2578 6.16602 13.3867 6.29492C13.5156 6.42383 13.5801 6.57422 13.5801 6.74609C13.5801 6.92188 13.5156 7.07422 13.3867 7.20312C13.2578 7.32812 13.1055 7.39062 12.9297 7.39062ZM12.7773 12.5703C12.6289 12.7266 12.4395 12.8047 12.209 12.8047C11.9824 12.8047 11.7891 12.7266 11.6289 12.5703L6.05078 6.96289C5.89453 6.80273 5.81641 6.61133 5.81641 6.38867C5.81641 6.16211 5.89453 5.96875 6.05078 5.80859C6.20312 5.65234 6.39453 5.57422 6.625 5.57422C6.85547 5.57422 7.04688 5.65234 7.19922 5.80859L12.7773 11.4219C12.9336 11.5781 13.0117 11.7676 13.0117 11.9902C13.0156 12.2168 12.9375 12.4102 12.7773 12.5703ZM12.332 12.125C12.3906 12.0664 12.416 12.002 12.4082 11.9316C12.4004 11.8613 12.3672 11.7969 12.3086 11.7383L8.69922 8.11719L8.33594 8.48633L11.9453 12.1016C12.0039 12.1602 12.0684 12.1914 12.1387 12.1953C12.2129 12.2031 12.2773 12.1797 12.332 12.125Z" fill="black"></path></svg>