<svg fill="none" viewBox=".94 .72 12.11 12.11" xmlns="http://www.w3.org/2000/svg"><path d="m6.99414 12.8223c-.83594 0-1.61914-.1582-2.34961-.4746-.73047-.3125-1.37305-.7461-1.92773-1.3008-.55469-.5508-.99024-1.19143-1.30664-1.9219-.3125-.73438-.468754-1.51953-.468754-2.35547s.156254-1.61914.468754-2.34961c.3164-.73437.75195-1.3789 1.30664-1.93359.55468-.55469 1.19726-.98828 1.92773-1.30078.73047-.312503 1.51367-.468753 2.34961-.468753s1.61914.15625 2.34961.468753c.73435.3125 1.37895.74609 1.93355 1.30078.5547.55469.9883 1.19922 1.3008 1.93359.3164.73047.4746 1.51367.4746 2.34961s-.1582 1.62109-.4746 2.35547c-.3125.73047-.7461 1.3711-1.3008 1.9219-.5546.5547-1.1992.9883-1.93355 1.3008-.73047.3164-1.51367.4746-2.34961.4746zm0-1.1953c.67188 0 1.30078-.127 1.88672-.3809.58594-.25 1.10156-.5977 1.54684-1.043.4493-.44529.7989-.96091 1.0489-1.54685s.375-1.21484.375-1.88672c0-.67187-.125-1.30078-.375-1.88672-.25-.58984-.5996-1.10547-1.0489-1.54687-.44528-.44532-.9609-.79297-1.54684-1.04297-.58594-.25391-1.21484-.38086-1.88672-.38086-.66797 0-1.29687.12695-1.88672.38086-.58594.25-1.10156.59765-1.54687 1.04297-.44532.4414-.79493.95703-1.04883 1.54687-.25.58594-.375 1.21485-.375 1.88672 0 .67188.125 1.30078.375 1.88672.2539.58594.60351 1.10156 1.04883 1.54685.44531.4453.96093.793 1.54687 1.043.58985.2539 1.21875.3809 1.88672.3809zm-2.2207-4.30083c-.17578 0-.32032-.04687-.4336-.14062-.11328-.09766-.16992-.23243-.16992-.4043 0-.16797.05469-.30273.16406-.4043.11329-.10156.25977-.15234.43946-.15234h4.4414c.1836 0 .33008.05078.43946.15234.10937.10157.16406.23633.16406.4043 0 .17187-.05664.30664-.16992.4043-.11328.09375-.25782.14062-.4336.14062z" fill="#000"/></svg>