<svg xmlns="http://www.w3.org/2000/svg" fill="none" viewBox="0.44 0.3 6.07 9.4"><path d="M2.50488 8.66699C2.50488 8.85905 2.45931 9.0332 2.36816 9.18945C2.27376 9.3457 2.14844 9.47103 1.99219 9.56543C1.83594 9.65658 1.66341 9.70215 1.47461 9.70215C1.28255 9.70215 1.1084 9.65658 0.952148 9.56543C0.795898 9.47103 0.672201 9.3457 0.581055 9.18945C0.486654 9.0332 0.439453 8.85905 0.439453 8.66699C0.439453 8.47819 0.486654 8.30566 0.581055 8.14941C0.672201 7.99316 0.795898 7.86947 0.952148 7.77832C1.1084 7.68392 1.28255 7.63672 1.47461 7.63672C1.66341 7.63672 1.83594 7.68392 1.99219 7.77832C2.14844 7.86947 2.27376 7.99316 2.36816 8.14941C2.45931 8.30566 2.50488 8.47819 2.50488 8.66699ZM2.50488 5.00488C2.50488 5.19368 2.45931 5.36621 2.36816 5.52246C2.27376 5.67871 2.14844 5.80404 1.99219 5.89844C1.83594 5.98958 1.66341 6.03516 1.47461 6.03516C1.28255 6.03516 1.1084 5.98958 0.952148 5.89844C0.795898 5.80404 0.672201 5.67871 0.581055 5.52246C0.486654 5.36621 0.439453 5.19368 0.439453 5.00488C0.439453 4.81608 0.486654 4.64355 0.581055 4.4873C0.672201 4.3278 0.795898 4.20247 0.952148 4.11133C1.1084 4.01693 1.28255 3.96973 1.47461 3.96973C1.66341 3.96973 1.83594 4.01693 1.99219 4.11133C2.14844 4.20247 2.27376 4.3278 2.36816 4.4873C2.45931 4.64355 2.50488 4.81608 2.50488 5.00488ZM2.50488 1.33789C2.50488 1.52995 2.45931 1.7041 2.36816 1.86035C2.27376 2.0166 2.14844 2.14193 1.99219 2.23633C1.83594 2.32747 1.66341 2.37305 1.47461 2.37305C1.28255 2.37305 1.1084 2.32747 0.952148 2.23633C0.795898 2.14193 0.672201 2.0166 0.581055 1.86035C0.486654 1.7041 0.439453 1.52995 0.439453 1.33789C0.439453 1.14909 0.486654 0.976562 0.581055 0.820312C0.672201 0.664062 0.795898 0.538737 0.952148 0.444336C1.1084 0.349935 1.28255 0.302734 1.47461 0.302734C1.66341 0.302734 1.83594 0.349935 1.99219 0.444336C2.14844 0.538737 2.27376 0.664062 2.36816 0.820312C2.45931 0.976562 2.50488 1.14909 2.50488 1.33789ZM6.50488 8.66699C6.50488 8.85905 6.45931 9.0332 6.36816 9.18945C6.27376 9.3457 6.14844 9.47103 5.99219 9.56543C5.83594 9.65658 5.66341 9.70215 5.47461 9.70215C5.28255 9.70215 5.1084 9.65658 4.95215 9.56543C4.7959 9.47103 4.6722 9.3457 4.58105 9.18945C4.48665 9.0332 4.43945 8.85905 4.43945 8.66699C4.43945 8.47819 4.48665 8.30566 4.58105 8.14941C4.6722 7.99316 4.7959 7.86947 4.95215 7.77832C5.1084 7.68392 5.28255 7.63672 5.47461 7.63672C5.66341 7.63672 5.83594 7.68392 5.99219 7.77832C6.14844 7.86947 6.27376 7.99316 6.36816 8.14941C6.45931 8.30566 6.50488 8.47819 6.50488 8.66699ZM6.50488 5.00488C6.50488 5.19368 6.45931 5.36621 6.36816 5.52246C6.27376 5.67871 6.14844 5.80404 5.99219 5.89844C5.83594 5.98958 5.66341 6.03516 5.47461 6.03516C5.28255 6.03516 5.1084 5.98958 4.95215 5.89844C4.7959 5.80404 4.6722 5.67871 4.58105 5.52246C4.48665 5.36621 4.43945 5.19368 4.43945 5.00488C4.43945 4.81608 4.48665 4.64355 4.58105 4.4873C4.6722 4.3278 4.7959 4.20247 4.95215 4.11133C5.1084 4.01693 5.28255 3.96973 5.47461 3.96973C5.66341 3.96973 5.83594 4.01693 5.99219 4.11133C6.14844 4.20247 6.27376 4.3278 6.36816 4.4873C6.45931 4.64355 6.50488 4.81608 6.50488 5.00488ZM6.50488 1.33789C6.50488 1.52995 6.45931 1.7041 6.36816 1.86035C6.27376 2.0166 6.14844 2.14193 5.99219 2.23633C5.83594 2.32747 5.66341 2.37305 5.47461 2.37305C5.28255 2.37305 5.1084 2.32747 4.95215 2.23633C4.7959 2.14193 4.6722 2.0166 4.58105 1.86035C4.48665 1.7041 4.43945 1.52995 4.43945 1.33789C4.43945 1.14909 4.48665 0.976562 4.58105 0.820312C4.6722 0.664062 4.7959 0.538737 4.95215 0.444336C5.1084 0.349935 5.28255 0.302734 5.47461 0.302734C5.66341 0.302734 5.83594 0.349935 5.99219 0.444336C6.14844 0.538737 6.27376 0.664062 6.36816 0.820312C6.45931 0.976562 6.50488 1.14909 6.50488 1.33789Z" fill="black"></path></svg>