<svg xmlns="http://www.w3.org/2000/svg" fill="none" viewBox="3.04 2.81 9.91 9.91"><path d="M3.04297 7.76953C3.04297 7.5625 3.11719 7.38477 3.26562 7.23633C3.41406 7.08789 3.5918 7.01367 3.79883 7.01367H7.25V3.56836C7.25 3.36133 7.32227 3.18359 7.4668 3.03516C7.61133 2.88672 7.78906 2.8125 8 2.8125C8.20703 2.8125 8.38477 2.88672 8.5332 3.03516C8.68164 3.18359 8.75586 3.36133 8.75586 3.56836V7.01367H12.207C12.4102 7.01367 12.5859 7.08789 12.7344 7.23633C12.8828 7.38477 12.957 7.5625 12.957 7.76953C12.957 7.98047 12.8828 8.16016 12.7344 8.30859C12.5859 8.45312 12.4102 8.52539 12.207 8.52539H8.75586V11.9766C8.75586 12.1797 8.68164 12.3555 8.5332 12.5039C8.38477 12.6523 8.20703 12.7266 8 12.7266C7.78906 12.7266 7.61133 12.6523 7.4668 12.5039C7.32227 12.3555 7.25 12.1797 7.25 11.9766V8.52539H3.79883C3.5918 8.52539 3.41406 8.45312 3.26562 8.30859C3.11719 8.16016 3.04297 7.98047 3.04297 7.76953Z" fill="black"></path></svg>