<svg width="14" height="13" viewBox="0 0 14 13" fill="none" xmlns="http://www.w3.org/2000/svg">
<path d="M4.57422 12.166C4.37891 12.166 4.20508 12.0918 4.05273 11.9434L0.748047 8.67969C0.673828 8.60547 0.617188 8.52148 0.578125 8.42773C0.539062 8.33398 0.519531 8.23828 0.519531 8.14062C0.519531 8.03906 0.539062 7.94141 0.578125 7.84766C0.617188 7.75 0.673828 7.66602 0.748047 7.5957L4.05273 4.33789C4.20508 4.18555 4.37891 4.10938 4.57422 4.10938C4.78906 4.10938 4.96094 4.17578 5.08984 4.30859C5.22266 4.44141 5.28906 4.60938 5.28906 4.8125C5.28906 4.92578 5.26758 5.02344 5.22461 5.10547C5.18555 5.1875 5.13477 5.26172 5.07227 5.32812L3.70117 6.6582L2.22461 7.88867L1.98438 7.50195L4.07031 7.4082H11.2246C11.5098 7.4082 11.7148 7.34375 11.8398 7.21484C11.9688 7.08594 12.0332 6.87695 12.0332 6.58789V3.24219C12.0332 2.95703 11.9688 2.75 11.8398 2.62109C11.7148 2.49219 11.5098 2.42773 11.2246 2.42773H8.04297C7.82422 2.42773 7.64453 2.35742 7.50391 2.2168C7.36719 2.07617 7.29883 1.9043 7.29883 1.70117C7.29883 1.49805 7.36914 1.32617 7.50977 1.18555C7.65039 1.04492 7.82812 0.974609 8.04297 0.974609H11.2715C12.041 0.974609 12.5996 1.14844 12.9473 1.49609C13.2988 1.84375 13.4746 2.40234 13.4746 3.17188V6.65234C13.4746 7.41797 13.2988 7.97852 12.9473 8.33398C12.5996 8.68945 12.041 8.86719 11.2715 8.86719H4.07031L1.98438 8.77344L2.22461 8.38672L3.70117 9.61719L5.07227 10.9531C5.13477 11.0195 5.18555 11.0938 5.22461 11.1758C5.26758 11.2578 5.28906 11.3535 5.28906 11.4629C5.28906 11.666 5.22266 11.834 5.08984 11.9668C4.96094 12.0996 4.78906 12.166 4.57422 12.166Z"/>
</svg>
